<svg width="960" height="720" viewBox="0 0 960 720" fill="none" xmlns="http://www.w3.org/2000/svg">
  <rect width="960" height="720" rx="40" fill="#F5F0E8"/>
  <rect x="86" y="96" width="788" height="528" rx="28" fill="#F0E7DA"/>
  <rect x="126" y="138" width="452" height="428" rx="22" fill="#FFFFFF"/>
  <rect x="158" y="170" width="388" height="244" rx="16" fill="#EDE5F5"/>
  <circle cx="254" cy="292" r="64" fill="#D4A24E" fill-opacity="0.26"/>
  <path d="M188 358C250 298 336 258 436 246C458 243 492 243 516 248V382H188V358Z" fill="#816A4F" fill-opacity="0.16"/>
  <rect x="158" y="440" width="214" height="20" rx="10" fill="#1A1A1A"/>
  <rect x="158" y="474" width="286" height="16" rx="8" fill="#816A4F" fill-opacity="0.72"/>
  <rect x="158" y="508" width="174" height="14" rx="7" fill="#816A4F" fill-opacity="0.45"/>
  <rect x="618" y="188" width="186" height="286" rx="24" fill="#EAD8C2"/>
  <rect x="690" y="188" width="44" height="286" fill="#E8593C"/>
  <rect x="618" y="302" width="186" height="58" fill="#E8593C"/>
  <path d="M711 188C680 212 664 240 664 270C664 311 687 338 734 360C773 379 792 402 792 430C792 446 787 460 778 474" stroke="#D4A24E" stroke-width="20" stroke-linecap="round"/>
  <rect x="596" y="510" width="230" height="22" rx="11" fill="#1A1A1A"/>
  <rect x="640" y="548" width="140" height="16" rx="8" fill="#816A4F" fill-opacity="0.56"/>
</svg>
